<svg width="28" height="28" viewBox="0 0 28 28" fill="none" xmlns="http://www.w3.org/2000/svg">
<path d="M20.9066 7.72333C20.7882 7.43826 20.5617 7.21172 20.2766 7.09333C20.1363 7.03355 19.9857 7.00184 19.8333 7H8.1666C7.85718 7 7.56043 7.12292 7.34164 7.34171C7.12285 7.5605 6.99993 7.85725 6.99993 8.16667C6.99993 8.47609 7.12285 8.77283 7.34164 8.99162C7.56043 9.21042 7.85718 9.33333 8.1666 9.33333H17.0216L7.33826 19.005C7.22891 19.1135 7.14212 19.2425 7.08289 19.3847C7.02366 19.5268 6.99316 19.6793 6.99316 19.8333C6.99316 19.9873 7.02366 20.1398 7.08289 20.282C7.14212 20.4242 7.22891 20.5532 7.33826 20.6617C7.44672 20.771 7.57575 20.8578 7.71792 20.917C7.86009 20.9763 8.01258 21.0068 8.1666 21.0068C8.32061 21.0068 8.4731 20.9763 8.61527 20.917C8.75744 20.8578 8.88647 20.771 8.99493 20.6617L18.6666 10.9783V19.8333C18.6666 20.1428 18.7895 20.4395 19.0083 20.6583C19.2271 20.8771 19.5238 21 19.8333 21C20.1427 21 20.4394 20.8771 20.6582 20.6583C20.877 20.4395 20.9999 20.1428 20.9999 19.8333V8.16667C20.9981 8.01421 20.9664 7.86359 20.9066 7.72333Z" fill="#1A1A1A"/>
</svg>
